HIERARCHY
ROOT Hips
{
	OFFSET 0.000000 0.000000 0.000000
	CHANNELS 6 Xposition Yposition Zposition Zrotation Yrotation Xrotation 
	JOINT LowerBack
	{
		OFFSET 0.000000 0.000000 0.000000
		CHANNELS 3 Zrotation Yrotation Xrotation
		JOINT Spine
		{
			OFFSET 0.028270 2.035590 -0.193380
			CHANNELS 3 Zrotation Yrotation Xrotation
			JOINT Spine1
			{
				OFFSET 0.056720 2.048850 -0.042750
				CHANNELS 3 Zrotation Yrotation Xrotation
				JOINT Neck
				{
					OFFSET 0.000000 0.000000 0.000000
					CHANNELS 3 Zrotation Yrotation Xrotation
					JOINT Neck1
					{
						OFFSET -0.054170 1.746240 0.172020
						CHANNELS 3 Zrotation Yrotation Xrotation
						JOINT Head
						{
							OFFSET 0.104070 1.761360 -0.123970
							CHANNELS 3 Zrotation Yrotation Xrotation
							End Site
							{
								OFFSET 0.000000 0.000000 0.000000
							}
						}
					}
				}
				JOINT LeftShoulder
				{
					OFFSET 0.000000 0.000000 0.000000
					CHANNELS 3 Zrotation Yrotation Xrotation
					JOINT LeftArm
					{
						OFFSET 3.362410 1.200890 -0.311210
						CHANNELS 3 Zrotation Yrotation Xrotation
						JOINT LeftForeArm
						{
							OFFSET 4.983000 -0.000000 -0.000000
							CHANNELS 3 Zrotation Yrotation Xrotation
							JOINT LeftHand
							{
								OFFSET 3.483560 -0.000000 -0.000000
								CHANNELS 3 Zrotation Yrotation Xrotation
								JOINT LeftFingerBase
								{
									OFFSET 0.000000 0.000000 0.000000
									CHANNELS 3 Zrotation Yrotation Xrotation
									JOINT LeftHandIndex1
									{
										OFFSET 0.715260 -0.000000 -0.000000
										CHANNELS 3 Zrotation Yrotation Xrotation
										End Site
										{
											OFFSET 0.000000 0.000000 0.000000
										}
									}
								}
								JOINT LThumb
								{
									OFFSET 0.000000 0.000000 0.000000
									CHANNELS 3 Zrotation Yrotation Xrotation
									End Site
									{
										OFFSET 0.000000 0.000000 0.000000
									}
								}
							}
						}
					}
				}
				JOINT RightShoulder
				{
					OFFSET 0.000000 0.000000 0.000000
					CHANNELS 3 Zrotation Yrotation Xrotation
					JOINT RightArm
					{
						OFFSET -3.136600 1.374050 -0.404650
						CHANNELS 3 Zrotation Yrotation Xrotation
						JOINT RightForeArm
						{
							OFFSET -5.241900 -0.000000 -0.000000
							CHANNELS 3 Zrotation Yrotation Xrotation
							JOINT RightHand
							{
								OFFSET -3.444170 -0.000000 -0.000000
								CHANNELS 3 Zrotation Yrotation Xrotation
								JOINT RightFingerBase
								{
									OFFSET 0.000000 0.000000 0.000000
									CHANNELS 3 Zrotation Yrotation Xrotation
									JOINT RightHandIndex1
									{
										OFFSET -0.622530 -0.000000 -0.000000
										CHANNELS 3 Zrotation Yrotation Xrotation
										End Site
										{
											OFFSET 0.000000 0.000000 0.000000
										}
									}
								}
								JOINT RThumb
								{
									OFFSET 0.000000 0.000000 0.000000
									CHANNELS 3 Zrotation Yrotation Xrotation
									End Site
									{
										OFFSET 0.000000 0.000000 0.000000
									}
								}
							}
						}
					}
				}
			}
		}
	}
}
}
MOTION
Frames: 12
Frame Time: 0.008333
7.361665 20.119779 2.144443 33.232204 -86.709202 -11.347681 -1.139376 -0.927770 -4.815434 -0.185651 -0.839150 -3.968261 -2.153645 -0.876271 -1.374942 -1.684655 -6.523061 1.841406 -0.482224 -0.196154 2.614948 0.000000 0.000000 0.000000 16.686627 1.561954 -3.257447 -49.386357 -43.726643 2.959701 179.547846 -88.839265 179.830873 13.212473 -7.108027 -0.925245 -0.101201 0.805713 -0.000000 0.000000 0.000000 0.000000 0.000000 0.000000 0.000000 -11.794087 -3.478085 -2.629283 47.455522 46.588957 0.950976 -0.418796 74.691954 -0.125643 -11.822173 10.383572 -1.152715 0.044016 -0.667349 -0.000000 0.000000 0.000000 0.000000 0.000000 0.000000 0.000000 
7.123641 20.295624 2.129516 33.246840 -86.824633 -11.623017 -1.147193 -0.886750 -4.552870 -0.199469 -0.797155 -3.902214 -2.159501 -0.828463 -1.350166 -1.650775 -6.574217 2.012438 -0.535209 -0.201817 2.657116 0.000000 0.000000 0.000000 16.858300 2.043004 -3.407489 -47.690608 -43.726038 0.672480 179.390965 -86.544677 179.825235 13.228912 -7.149735 -0.933283 -0.094466 0.825114 -0.000000 0.000000 0.000000 0.000000 0.000000 0.000000 0.000000 -11.640422 -3.670064 -2.739745 44.932965 46.724862 -1.078748 -0.352255 76.516814 -0.125617 -11.552453 9.984926 -1.085277 0.036088 -0.672578 -0.000000 0.000000 0.000000 0.000000 0.000000 0.000000 0.000000 
6.887830 20.462535 2.115181 32.907600 -86.907891 -11.425944 -1.130283 -0.851555 -4.297604 -0.207923 -0.762976 -3.837977 -2.165077 -0.788886 -1.323621 -1.642771 -6.601506 2.217324 -0.600203 -0.208561 2.707052 0.000000 0.000000 0.000000 17.031603 2.494558 -3.562470 -46.056836 -43.604128 -1.774953 179.213426 -84.207647 179.818245 13.337757 -7.325114 -0.964213 -0.090396 0.847327 -0.000000 0.000000 0.000000 0.000000 0.000000 0.000000 0.000000 -11.476518 -3.876245 -2.870058 42.394905 46.753294 -3.239417 -0.272776 78.381099 -0.129050 -11.658502 9.769387 -1.073740 0.034347 -0.680576 -0.000000 0.000000 0.000000 0.000000 0.000000 0.000000 0.000000 
6.653871 20.621656 2.101205 32.490353 -86.957064 -11.074432 -1.104214 -0.823169 -4.025936 -0.213299 -0.736008 -3.771917 -2.165771 -0.757070 -1.301702 -1.670975 -6.597128 2.459610 -0.672560 -0.216146 2.765438 0.000000 0.000000 0.000000 17.207696 2.888911 -3.718707 -44.509166 -43.319998 -4.362824 179.018751 -81.831235 179.810124 13.537984 -7.573608 -1.011634 -0.089602 0.870809 -0.000000 0.000000 0.000000 0.000000 0.000000 0.000000 0.000000 -11.336009 -4.081562 -3.020438 39.932376 46.646991 -5.483815 -0.179771 80.263430 -0.135929 -12.116304 9.737042 -1.114206 0.038714 -0.691341 -0.000000 0.000000 0.000000 0.000000 0.000000 0.000000 0.000000 
6.421187 20.773213 2.087296 32.115746 -86.966221 -10.698372 -1.081897 -0.803398 -3.744845 -0.217415 -0.717027 -3.706117 -2.158110 -0.734130 -1.286851 -1.736571 -6.560491 2.734817 -0.748551 -0.224278 2.831230 0.000000 0.000000 0.000000 17.403798 3.208224 -3.873291 -43.086542 -42.849702 -7.056510 178.811066 -79.430270 179.801024 13.832876 -7.854678 -1.071548 -0.092661 0.894411 -0.000000 0.000000 0.000000 0.000000 0.000000 0.000000 0.000000 -11.236591 -4.278729 -3.187508 37.605709 46.392017 -7.759982 -0.072802 82.149579 -0.146114 -12.903948 9.865957 -1.204373 0.049206 -0.704433 -0.000000 0.000000 0.000000 0.000000 0.000000 0.000000 0.000000 
6.189599 20.917487 2.073885 31.423354 -86.939253 -9.913147 -1.044925 -0.790599 -3.483062 -0.216116 -0.706106 -3.644303 -2.142539 -0.720287 -1.270588 -1.837271 -6.518509 3.021975 -0.826937 -0.232547 2.899094 0.000000 0.000000 0.000000 17.613197 3.482746 -4.021219 -41.807079 -42.241879 -9.814225 178.595544 -77.043582 179.790737 14.244482 -8.159431 -1.145845 -0.100406 0.917859 -0.000000 0.000000 0.000000 0.000000 0.000000 0.000000 0.000000 -11.177825 -4.491888 -3.368350 35.430091 46.021086 -10.025250 0.047159 84.021543 -0.159335 -13.999118 10.118276 -1.342038 0.065756 -0.719061 -0.000000 0.000000 0.000000 0.000000 0.000000 0.000000 0.000000 
5.958552 21.053707 2.060632 30.702865 -86.875956 -9.035122 -1.010843 -0.784714 -3.238053 -0.212004 -0.701661 -3.587961 -2.114405 -0.714197 -1.260312 -1.973649 -6.459680 3.317109 -0.901173 -0.240547 2.968319 0.000000 0.000000 0.000000 17.849786 3.680654 -4.157647 -40.690000 -41.467041 -12.613407 178.377187 -74.691263 179.779689 14.761916 -8.440415 -1.228629 -0.112935 0.939621 -0.000000 0.000000 0.000000 0.000000 0.000000 0.000000 0.000000 -11.188722 -4.695861 -3.555419 33.468516 45.511384 -12.242051 0.179069 85.869369 -0.174827 -15.324984 10.466772 -1.521902 0.087142 -0.734701 -0.000000 0.000000 0.000000 0.000000 0.000000 0.000000 0.000000 
5.728183 21.181399 2.047358 30.079748 -86.776783 -8.197608 -0.989004 -0.785122 -3.012081 -0.206688 -0.702348 -3.537579 -2.072500 -0.714594 -1.255717 -2.138294 -6.393179 3.605584 -0.967194 -0.247860 3.035343 0.000000 0.000000 0.000000 18.118953 3.808949 -4.278855 -39.739513 -40.552689 -15.429749 178.160373 -72.410016 179.767868 15.394344 -8.690435 -1.319998 -0.130496 0.959223 -0.000000 0.000000 0.000000 0.000000 0.000000 0.000000 0.000000 -11.274561 -4.890648 -3.741446 31.733797 44.874177 -14.390600 0.321115 87.684021 -0.191831 -16.816074 10.871406 -1.736961 0.112312 -0.750643 -0.000000 0.000000 0.000000 0.000000 0.000000 0.000000 0.000000 
5.498660 21.299771 2.034228 29.482983 -86.649173 -7.333256 -0.974605 -0.789162 -2.810425 -0.198908 -0.705895 -3.493800 -2.016622 -0.719152 -1.254536 -2.324564 -6.330811 3.872509 -1.021273 -0.254093 3.096556 0.000000 0.000000 0.000000 18.415765 3.885144 -4.381665 -38.950483 -39.539485 -18.242051 177.949035 -70.241144 179.755259 16.148751 -8.907747 -1.420855 -0.153108 0.976347 -0.000000 0.000000 0.000000 0.000000 0.000000 0.000000 0.000000 -11.439987 -5.079838 -3.920542 30.226073 44.128848 -16.461291 0.470673 89.454640 -0.209494 -18.397591 11.296121 -1.977418 0.139978 -0.766264 -0.000000 0.000000 0.000000 0.000000 0.000000 0.000000 0.000000 
5.270002 21.407881 2.021276 28.909371 -86.500960 -6.444333 -0.966320 -0.794033 -2.634170 -0.188371 -0.709593 -3.456438 -1.947256 -0.725055 -1.254601 -2.524161 -6.280604 4.106551 -1.060196 -0.258946 3.149218 0.000000 0.000000 0.000000 18.733968 3.928139 -4.464578 -38.313962 -38.468455 -21.029816 177.746038 -68.222573 179.741837 17.030215 -9.096922 -1.532198 -0.180588 0.990857 -0.000000 0.000000 0.000000 0.000000 0.000000 0.000000 0.000000 -11.685358 -5.264563 -4.087429 28.936451 43.292330 -18.452905 -179.375074 88.827074 179.773016 -19.993900 11.709195 -2.230969 0.168817 -0.781065 -0.000000 0.000000 0.000000 0.000000 0.000000 0.000000 0.000000 
5.042606 21.504392 2.008374 28.495799 -86.333381 -5.692658 -0.974241 -0.799629 -2.466557 -0.177213 -0.712434 -3.422451 -1.864443 -0.731122 -1.256908 -2.726760 -6.242639 4.302331 -1.080896 -0.262218 3.192060 0.000000 0.000000 0.000000 19.074954 3.949779 -4.528452 -37.821119 -37.368864 -23.776085 177.551967 -66.382468 179.727553 18.043506 -9.266090 -1.656032 -0.212537 1.002765 -0.000000 0.000000 0.000000 0.000000 0.000000 0.000000 0.000000 -12.007860 -5.439153 -4.237329 27.847509 42.371914 -20.373527 -179.218714 87.165547 179.756406 -21.537331 12.082339 -2.484015 0.197653 -0.794672 -0.000000 0.000000 0.000000 0.000000 0.000000 0.000000 0.000000 
4.816392 21.589341 1.995854 28.060617 -86.162926 -4.889888 -0.981970 -0.801023 -2.316084 -0.162619 -0.710858 -3.391852 -1.771626 -0.733554 -1.254773 -2.924974 -6.227845 4.452196 -1.083272 -0.263817 3.223103 0.000000 0.000000 0.000000 19.418312 3.987641 -4.574557 -37.455158 -36.298285 -26.454180 177.368157 -64.751284 179.712354 19.190912 -9.427606 -1.794658 -0.248437 1.012364 -0.000000 0.000000 0.000000 0.000000 0.000000 0.000000 0.000000 -12.395872 -5.614184 -4.369599 26.930909 41.399094 -22.230778 -179.063398 85.571068 179.741234 -22.969785 12.397488 -2.723060 0.225437 -0.806829 -0.000000 0.000000 0.000000 0.000000 0.000000 0.000000 0.000000 
